<?xml version="1.0" standalone="no"?>
<!DOCTYPE svg PUBLIC "-//W3C//DTD SVG 20010904//EN"
 "http://www.w3.org/TR/2001/REC-SVG-20010904/DTD/svg10.dtd">
<svg version="1.0" xmlns="http://www.w3.org/2000/svg"
 width="1024.000000pt" height="1024.000000pt" viewBox="0 0 1024.000000 1024.000000"
 preserveAspectRatio="xMidYMid meet">

<g transform="translate(0.000000,1024.000000) scale(0.100000,-0.100000)"
fill="#000000" stroke="none">
<path d="M5080 6970 c-41 -27 -106 -68 -145 -91 -38 -23 -113 -70 -165 -104
-52 -34 -125 -81 -162 -104 -38 -24 -68 -47 -68 -52 0 -9 55 -46 275 -184 52
-33 142 -90 200 -127 57 -38 110 -68 117 -68 7 0 58 28 114 63 55 34 196 121
312 192 116 72 212 133 212 136 0 7 -181 126 -342 225 -26 16 -95 59 -152 97
-57 37 -108 67 -113 66 -4 0 -42 -22 -83 -49z"/>
<path d="M4480 6542 l0 -69 123 -78 c199 -128 277 -178 367 -235 47 -29 96
-60 110 -70 14 -9 30 -19 36 -23 8 -5 122 59 159 90 6 5 35 23 65 41 30 18 62
37 70 42 13 8 96 59 327 201 75 46 83 57 83 127 0 59 -12 57 -131 -20 -81 -52
-466 -290 -515 -319 l-42 -23 -108 70 c-60 39 -154 99 -209 134 -55 35 -111
71 -125 80 -71 48 -191 120 -200 120 -6 0 -10 -29 -10 -68z"/>
<path d="M4188 5853 c0 -340 -2 -644 -3 -676 -3 -58 -16 -87 -41 -87 -8 0 -14
-4 -14 -10 0 -5 -6 -10 -13 -10 -7 0 -18 -9 -25 -20 -7 -11 -19 -20 -26 -20
-8 0 -24 -16 -36 -35 -12 -19 -26 -35 -31 -35 -4 0 -6 -7 -3 -15 4 -8 1 -15
-5 -15 -6 0 -11 -4 -11 -10 0 -5 6 -10 14 -10 7 0 20 -8 27 -17 16 -19 -119
51 -197 103 -75 50 -80 47 -77 -38 2 -52 8 -76 19 -85 12 -9 183 -114 332
-204 15 -9 101 -63 192 -119 91 -56 179 -110 195 -120 55 -32 399 -241 435
-264 19 -13 68 -44 107 -70 40 -26 77 -45 83 -41 5 3 10 39 10 80 l0 73 -64
36 c-58 32 -140 82 -343 207 -40 24 -73 47 -73 51 0 4 33 5 73 3 180 -13 393
-25 429 -25 l38 0 0 725 0 725 -59 0 c-57 0 -65 3 -173 73 -62 41 -177 114
-255 163 -79 49 -198 124 -265 166 -136 85 -225 138 -233 138 -3 0 -6 -278 -7
-617z m267 -1223 c3 -5 2 -10 -4 -10 -5 0 -13 5 -16 10 -3 6 -2 10 4 10 5 0
13 -4 16 -10z"/>
<path d="M5970 6193 c-14 -9 -46 -30 -72 -47 l-47 -31 -1 -133 c0 -74 4 -132
8 -130 5 2 42 22 83 46 l74 43 -3 134 c-2 74 -6 135 -10 134 -4 0 -18 -7 -32
-16z"/>
<path d="M5678 6017 l-67 -42 -1 -133 c0 -76 4 -132 9 -130 5 2 41 21 80 43
l71 40 -3 129 c-1 75 -6 131 -12 132 -5 2 -40 -16 -77 -39z"/>
<path d="M5388 5845 l-68 -45 0 -130 c0 -142 1 -144 55 -110 17 11 47 29 68
40 l37 20 0 135 c0 102 -3 135 -12 135 -7 -1 -43 -21 -80 -45z"/>
<path d="M5927 5744 l-77 -46 0 -134 c0 -87 4 -134 11 -134 5 0 37 18 69 40
32 22 64 40 69 40 7 0 11 48 11 140 0 77 -1 140 -3 140 -1 0 -37 -21 -80 -46z"/>
<path d="M5706 5615 c-20 -14 -40 -25 -44 -25 -4 -1 -17 -9 -29 -19 -22 -18
-23 -27 -23 -150 0 -72 2 -131 5 -131 3 0 39 18 80 41 l75 41 0 134 c0 150 -1
152 -64 109z"/>
<path d="M5425 5447 c-22 -12 -55 -31 -72 -42 l-33 -20 0 -132 c0 -80 4 -133
10 -133 5 0 33 15 62 33 29 19 61 36 71 40 15 6 17 22 17 142 0 74 -3 135 -7
135 -5 -1 -26 -11 -48 -23z"/>
<path d="M5965 5350 c-16 -10 -35 -22 -40 -27 -6 -4 -24 -15 -40 -23 l-30 -16
-3 -132 c-2 -88 1 -132 8 -132 6 0 42 19 80 42 l70 41 0 134 c0 73 -3 133 -7
132 -5 0 -21 -9 -38 -19z"/>
<path d="M5673 5177 l-63 -42 0 -133 c0 -74 4 -132 8 -130 4 2 40 23 80 48
l72 45 0 75 c0 102 -10 180 -24 179 -6 0 -39 -19 -73 -42z"/>
<path d="M5445 5043 c-11 -8 -44 -28 -72 -45 l-53 -30 0 -132 c0 -73 3 -135 6
-138 3 -3 35 14 72 38 37 24 70 44 75 44 9 0 9 267 -1 274 -4 2 -16 -3 -27
-11z"/>
<path d="M3721 3795 c-103 -29 -151 -88 -151 -185 0 -120 68 -174 290 -230 59
-15 90 -45 90 -86 0 -23 -8 -38 -26 -53 -58 -45 -159 -36 -259 25 -66 39 -87
38 -111 -7 -14 -27 -14 -33 0 -53 34 -54 170 -106 271 -106 117 1 203 42 236
113 36 81 20 169 -42 221 -39 33 -51 38 -184 76 -139 41 -175 84 -121 147 23
26 29 28 103 28 68 0 85 -4 130 -30 44 -25 55 -27 77 -17 14 6 28 23 32 39 20
79 -199 156 -335 118z"/>
<path d="M4440 3795 c-30 -9 -74 -27 -97 -41 -101 -59 -172 -204 -160 -328 10
-102 34 -154 101 -222 76 -77 146 -107 251 -107 120 0 252 68 238 122 -8 30
-50 62 -71 52 -9 -4 -39 -18 -67 -31 -188 -88 -372 84 -314 295 16 56 91 129
149 145 62 17 132 6 196 -30 62 -35 83 -31 103 19 18 42 2 64 -72 100 -78 39
-176 48 -257 26z"/>
<path d="M5893 3796 c-222 -72 -320 -313 -211 -518 37 -70 82 -112 158 -147
49 -23 67 -26 165 -26 100 0 115 3 160 27 62 32 139 113 168 176 17 38 22 66
22 142 0 82 -4 103 -26 151 -37 79 -90 133 -166 171 -54 26 -79 32 -146 35
-51 2 -98 -2 -124 -11z m222 -145 c128 -71 155 -256 53 -360 -44 -45 -82 -62
-150 -68 -72 -7 -131 14 -183 64 -48 46 -67 93 -67 163 -2 186 182 292 347
201z"/>
<path d="M6719 3796 c-139 -37 -248 -163 -265 -306 -12 -108 46 -251 129 -314
114 -87 282 -104 407 -41 186 94 248 357 124 528 -85 117 -249 173 -395 133z
m172 -122 c65 -19 129 -80 147 -141 49 -164 -55 -312 -221 -313 -72 0 -114 17
-166 69 -71 71 -86 184 -37 279 23 44 80 92 127 107 59 18 85 18 150 -1z"/>
<path d="M2497 3793 c-44 -11 -40 -94 5 -106 13 -4 87 -7 166 -7 115 0 144 -3
148 -14 4 -9 -61 -96 -168 -226 -95 -116 -179 -225 -186 -243 -19 -47 -3 -84
40 -92 62 -12 496 -1 509 12 16 16 16 70 0 86 -8 8 -65 13 -181 15 -167 3
-170 4 -170 25 1 20 47 79 278 361 86 104 101 165 45 187 -24 9 -452 11 -486
2z"/>
<path d="M4933 3790 c-14 -6 -24 -21 -28 -42 -3 -18 -5 -164 -3 -325 2 -217 6
-295 16 -305 16 -16 78 -16 94 0 9 9 14 54 16 130 2 64 8 121 13 127 14 14
332 7 341 -8 4 -7 7 -63 6 -125 -1 -77 2 -116 10 -124 17 -17 92 -14 103 3 5
8 9 154 9 325 0 348 0 349 -65 347 -20 -1 -39 -4 -43 -8 -4 -4 -9 -60 -12
-124 -3 -79 -10 -123 -19 -134 -11 -15 -36 -17 -166 -17 -110 0 -155 3 -163
13 -6 6 -12 65 -14 129 -1 64 -7 121 -13 127 -16 15 -58 21 -82 11z"/>
<path d="M7329 3793 c-10 -2 -20 -14 -23 -26 -10 -37 -6 -631 4 -647 8 -13 45
-15 235 -15 245 0 245 0 245 57 0 52 -17 58 -180 58 -122 0 -151 3 -164 16
-14 13 -16 52 -16 270 0 241 -1 255 -20 274 -19 19 -45 23 -81 13z"/>
</g>
</svg>
